<svg xmlns="http://www.w3.org/2000/svg" xmlns:xlink="http://www.w3.org/1999/xlink" width="600" zoomAndPan="magnify" viewBox="0 0 450 521.249983" height="695" preserveAspectRatio="xMidYMid meet" version="1.2"><defs><clipPath id="ff1d63bac7"><path d="M 188 293 L 449.675781 293 L 449.675781 520.5 L 188 520.5 Z M 188 293 "/></clipPath></defs><g id="8b14e4687b"><path style=" stroke:none;fill-rule:nonzero;fill:#ffde52;fill-opacity:1;" d="M 394.527344 477.148438 C 394.527344 477.148438 393.898438 477.148438 393.429688 477.148438 C 369.703125 475.578125 158.226562 456.246094 56.726562 272.039062 C 0.324219 169.5625 6.765625 66.925781 15.5625 14.746094 C 16.976562 6.257812 24.992188 0.601562 33.632812 1.859375 C 42.117188 3.273438 47.929688 11.445312 46.515625 19.933594 C 38.34375 68.027344 32.53125 162.644531 84.378906 256.636719 C 179.4375 429.210938 386.828125 445.085938 395.628906 445.558594 C 404.269531 446.1875 410.867188 453.574219 410.242188 462.375 C 409.613281 470.707031 402.855469 476.992188 394.527344 476.992188 Z M 394.527344 477.148438 "/><g clip-rule="nonzero" clip-path="url(#ff1d63bac7)"><path style=" stroke:none;fill-rule:nonzero;fill:#ffde52;fill-opacity:1;" d="M 245.269531 520.214844 C 231.128906 520.214844 216.828125 519.585938 202.6875 518.328125 C 194.046875 517.542969 187.605469 510 188.390625 501.355469 C 189.175781 492.710938 196.40625 485.953125 205.359375 487.050781 C 248.410156 490.667969 291.460938 488.464844 333.566406 480.292969 C 358.234375 475.578125 382.589844 468.664062 406.3125 459.859375 L 273.234375 320.132812 C 267.265625 313.847656 267.421875 303.945312 273.707031 297.972656 C 279.992188 292 289.890625 292.15625 295.859375 298.445312 L 444.964844 454.988281 C 448.578125 458.761719 449.992188 463.945312 449.046875 468.976562 C 448.105469 474.007812 444.648438 478.25 439.777344 480.292969 C 407.570312 494.125 373.789062 504.496094 339.539062 511.097656 C 308.429688 517.070312 276.847656 520.214844 245.269531 520.214844 Z M 245.269531 520.214844 "/></g></g></svg>